<?xml version="1.0" encoding="UTF-8" standalone="no"?>
<svg
   xmlns:dc="http://purl.org/dc/elements/1.1/"
   xmlns:cc="http://creativecommons.org/ns#"
   xmlns:rdf="http://www.w3.org/1999/02/22-rdf-syntax-ns#"
   xmlns:svg="http://www.w3.org/2000/svg"
   xmlns="http://www.w3.org/2000/svg"
   id="svg1190"
   version="1.1"
   viewBox="0 0 11.493064 11.209467"
   height="11.209467mm"
   width="11.493064mm">
  <defs
     id="defs1184" />
  <metadata
     id="metadata1187">
    <rdf:RDF>
      <cc:Work
         rdf:about="">
        <dc:format>image/svg+xml</dc:format>
        <dc:type
           rdf:resource="http://purl.org/dc/dcmitype/StillImage" />
        <dc:title></dc:title>
      </cc:Work>
    </rdf:RDF>
  </metadata>
  <g
     transform="translate(-51.436012,-85.313713)"
     id="layer1">
    <path
       id="path24"
       style="fill:#1b1817;fill-rule:evenodd;stroke-width:0.35277775"
       d="m 57.182057,85.313713 c -3.173237,0 -5.746045,2.572808 -5.746045,5.74675 0,2.538941 1.646414,4.69265 3.929945,5.452886 0.287513,0.05256 0.392288,-0.124884 0.392288,-0.277284 0,-0.136172 -0.0049,-0.497769 -0.0078,-0.977194 -1.598436,0.347133 -1.935691,-0.770467 -1.935691,-0.770467 -0.261409,-0.663575 -0.638175,-0.840316 -0.638175,-0.840316 -0.521759,-0.356659 0.03951,-0.349603 0.03951,-0.349603 0.576791,0.04092 0.88018,0.592314 0.88018,0.592314 0.512587,0.878064 1.345142,0.624416 1.67252,0.477661 0.05221,-0.371475 0.200378,-0.624769 0.364772,-0.76835 -1.275997,-0.144992 -2.617611,-0.638175 -2.617611,-2.840214 0,-0.627239 0.224014,-1.140178 0.591608,-1.541991 -0.05927,-0.145345 -0.256469,-0.729545 0.05609,-1.520825 0,0 0.4826,-0.154517 1.580444,0.589138 0.458259,-0.127352 0.950031,-0.191205 1.438628,-0.193322 0.487892,0.0021 0.979664,0.06597 1.438628,0.193322 1.097139,-0.743655 1.57868,-0.589138 1.57868,-0.589138 0.31362,0.79128 0.116417,1.37548 0.05715,1.520825 0.3683,0.401813 0.590903,0.914752 0.590903,1.541991 0,2.207683 -1.34373,2.693458 -2.623961,2.835628 0.206375,0.177447 0.390172,0.528108 0.390172,1.06433 0,0.767998 -0.0071,1.387828 -0.0071,1.576211 0,0.153812 0.103364,0.33267 0.395112,0.276578 2.281769,-0.761647 3.926772,-2.913944 3.926772,-5.45218 0,-3.173942 -2.573161,-5.74675 -5.747102,-5.74675" />
  </g>
</svg>
